<svg width="451" height="126" viewBox="0 0 451 126" fill="none" xmlns="http://www.w3.org/2000/svg">
<path d="M364 96H375M362 100H373M386 96H397M367 92H399M360 104H389M363 108H391M372 88H400M202 96H213M106 96H117M4 120H32M48 120H76M397 120H425M56 104H84M405 104H433M64 88H92M413 88H441M310 120H340M246 104H276M189 92L159 92M29 120H40M73 120H84M422 120H433M81 104H92M430 104H441M89 88H100M438 88H449M340 104H351M276 88H287M184 108L166 108L148 108M10 108H21M321 92H332M178 120L167 120M346 92H357M251 116H262M153 120L142 120M12 104H23M323 88H334M176 124L165 124M348 88H359M253 112H264M151 124L140 124M200 100H211M104 100H115M2 124H36M46 124H80M395 124H429M54 108H88M403 108H437M62 92H96M411 92H445M311 124H335M247 108H271M188 88L164 88M27 124H38M71 124H82M420 124H431M79 108H90M428 108H439M87 92H98M436 92H447M338 108H349M274 92H285M161 104H150M8 112H19M52 112H63M401 112H412M319 96H330M180 116H169M344 96H355M249 120H260M291 106H302M155 116H144M224 96H235M128 96H139M205 92H237M109 92H141M210 88H236M114 88H140M225 116H214M129 116H118M132 112H121M136 108H120M209 104H198M113 104H102M31 88H20M322 112H311M258 96H247M177 100L188 100M347 112H336M283 96H272M152 100L163 100M17 116H6M61 116H50M410 116H399M328 100H317M182 112H173H164L146 112M353 100H342M258 124H247M300 110H289M203 116H192M107 116H96M25 100H14M69 100H58M418 100H407M205 112H194M109 112H98M27 96H16M71 96H60M420 96H409M324 108H313M260 92H249M175 104L186 104M326 104H315M262 88H251M207 108H196M111 108H100M29 92H18M320 116H309M256 100H245M179 96L190 96M345 116H334M281 100H270M154 96L165 96M222 120H192M126 120H96M217 124H193M121 124H97M388 116H377M390 112H379M366 116H355M385 120H353M379 124H353" stroke="white" stroke-width="3" stroke-linecap="round" stroke-linejoin="round"/>
<path d="M254 32H243" stroke="white" stroke-width="6" stroke-linecap="round" stroke-linejoin="round"/>
<path d="M208 32H197" stroke="white" stroke-width="6" stroke-linecap="round" stroke-linejoin="round"/>
<path d="M225 14L225 3" stroke="white" stroke-width="6" stroke-linecap="round" stroke-linejoin="round"/>
<path d="M237.999 18.7782L245.777 11" stroke="white" stroke-width="6" stroke-linecap="round" stroke-linejoin="round"/>
<path d="M212.778 18.7782L205 11" stroke="white" stroke-width="6" stroke-linecap="round" stroke-linejoin="round"/>
<path d="M225 60L225 32L246 51.5L234 53L225 60Z" stroke="white" stroke-width="6" stroke-linecap="round" stroke-linejoin="round"/>
<path d="M212.778 43.9992L205 51.7773" stroke="white" stroke-width="6" stroke-linecap="round" stroke-linejoin="round"/>
</svg>
